<svg width="175" height="176" viewBox="0 0 175 176" fill="none" xmlns="http://www.w3.org/2000/svg">
<g id="undraw_verified_re_4io7 1" clip-path="url(#clip0_3_16)">
<g id="Group 25">
<path id="Ellipse 92" d="M87.271 176C135.469 176 174.542 173.705 174.542 170.874C174.542 168.043 135.469 165.748 87.271 165.748C39.0725 165.748 0 168.043 0 170.874C0 173.705 39.0725 176 87.271 176Z" fill="#E6E6E6"/>
<path id="Path 607" d="M98.9327 40.6062H97.9939V14.886C97.9939 10.938 96.4255 7.15169 93.6338 4.36002C90.8422 1.56835 87.0559 0 83.1078 0H28.6164C24.6684 0 20.8821 1.56835 18.0904 4.36002C15.2987 7.15169 13.7304 10.938 13.7304 14.886V155.988C13.7304 159.936 15.2987 163.722 18.0904 166.514C20.8821 169.306 24.6684 170.874 28.6164 170.874H83.1078C87.0559 170.874 90.8422 169.306 93.6338 166.514C96.4255 163.722 97.9939 159.936 97.9939 155.988V58.9142H98.9327V40.6062Z" fill="#3F3D56"/>
<path id="Path 608" d="M94.8255 14.9901V155.884C94.8254 158.833 93.6541 161.66 91.5693 163.745C89.4844 165.83 86.6568 167.001 83.7083 167.001H28.9555C26.0072 167.001 23.1796 165.83 21.0948 163.745C19.0101 161.66 17.8388 158.833 17.8386 155.885V14.9901C17.8387 12.0417 19.01 9.21404 21.0948 7.12919C23.1797 5.04434 26.0073 3.87305 28.9558 3.87299H35.5981C35.2717 4.67501 35.1473 5.54496 35.2361 6.4063C35.3248 7.26765 35.6238 8.09401 36.1068 8.81267C36.5898 9.53133 37.2421 10.1203 38.0061 10.5277C38.7702 10.9351 39.6227 11.1485 40.4886 11.1492H71.7062C72.5722 11.1486 73.4247 10.9352 74.1888 10.5278C74.9529 10.1204 75.6051 9.53144 76.0882 8.81277C76.5713 8.09411 76.8703 7.26774 76.959 6.40637C77.0477 5.545 76.9234 4.67503 76.597 3.87299H83.7083C86.6568 3.87305 89.4844 5.04434 91.5693 7.12919C93.6541 9.21404 94.8254 12.0417 94.8255 14.9901Z" fill="white"/>
<path id="Path 609" d="M43.1321 121.665H41.9805L42.365 99.1729H42.7494L43.1321 121.665Z" fill="#E6E6E6"/>
<path id="Path 610" d="M44.0914 85.0122L45.9501 82.1398C45.3989 80.6172 44.7623 79.1269 44.0432 77.676L42.8414 78.6469L43.7931 77.1762C42.886 75.3911 42.1725 74.2662 42.1725 74.2662C42.1725 74.2662 38.4454 80.1399 37.1995 86.3598L39.5846 90.0459L36.9447 87.9132C36.8507 88.6377 36.8023 89.3674 36.7999 90.098C36.7999 97.4638 39.2055 103.435 42.173 103.435C45.1405 103.435 47.5461 97.4631 47.5461 90.098C47.5461 87.8146 47.0294 85.4256 46.3159 83.2155L44.0914 85.0122Z" fill="#CCCCCC"/>
<path id="Path 611" d="M73.109 121.665H71.9574L72.3419 99.1729H72.7263L73.109 121.665Z" fill="#E6E6E6"/>
<path id="Path 612" d="M74.0683 85.0122L75.927 82.1398C75.3758 80.6172 74.7392 79.1269 74.0201 77.676L72.8183 78.6469L73.77 77.1762C72.8629 75.3911 72.1494 74.2662 72.1494 74.2662C72.1494 74.2662 68.4217 80.1404 67.1771 86.3598L69.5604 90.0454L66.9205 87.9127C66.8265 88.6372 66.7781 89.3669 66.7757 90.0975C66.7757 97.4633 69.1814 103.434 72.1488 103.434C75.1163 103.434 77.522 97.4626 77.522 90.0975C77.522 87.8141 77.0053 85.4251 76.2917 83.215L74.0683 85.0122Z" fill="#CCCCCC"/>
<path id="Ellipse 94" d="M42.2558 47.1079C48.0991 47.1079 52.836 42.371 52.836 36.5277C52.836 30.6844 48.0991 25.9475 42.2558 25.9475C36.4125 25.9475 31.6756 30.6844 31.6756 36.5277C31.6756 42.371 36.4125 47.1079 42.2558 47.1079Z" fill="#E6E6E6"/>
<path id="Path 613" d="M56.9101 118.39H54.536L55.3275 72.0135H56.1187L56.9101 118.39Z" fill="#E6E6E6"/>
<path id="Path 614" d="M58.8885 42.8156L62.721 36.8934C61.5845 33.7539 60.2717 30.681 58.7891 27.6894L56.3109 29.6908L58.2732 26.6583C56.4021 22.9773 54.9317 20.658 54.9317 20.658C54.9317 20.658 47.2457 32.7698 44.6779 45.5936L49.5945 53.1943L44.1501 48.7969C43.9562 50.2907 43.8565 51.7953 43.8515 53.3017C43.8515 68.4894 48.8118 80.8014 54.9305 80.8014C61.0492 80.8014 66.0094 68.4894 66.0094 53.3017C66.0094 48.5934 64.9442 43.6675 63.4748 39.1107L58.8885 42.8156Z" fill="#CCCCCC"/>
<path id="Path 615" d="M94.8255 125.075V156.602C94.8255 162.997 89.8483 168.18 83.7083 168.181H28.9555C22.8158 168.181 17.8384 162.997 17.8381 156.602V128.149C27.3311 116.543 41.0563 109.606 55.6842 109.022C70.3122 108.438 84.5072 114.26 94.8255 125.075Z" fill="#E6E6E6"/>
<path id="Ellipse 95" opacity="0.2" d="M56.3916 156.175C65.3389 156.175 72.592 148.922 72.592 139.974C72.592 131.027 65.3389 123.774 56.3916 123.774C47.4444 123.774 40.1913 131.027 40.1913 139.974C40.1913 148.922 47.4444 156.175 56.3916 156.175Z" fill="#00BFA6"/>
<path id="Ellipse 96" d="M56.3916 153.019C63.5959 153.019 69.4362 147.179 69.4362 139.974C69.4362 132.77 63.5959 126.93 56.3916 126.93C49.1874 126.93 43.3471 132.77 43.3471 139.974C43.3471 147.179 49.1874 153.019 56.3916 153.019Z" fill="#00BFA6"/>
<path id="Path 616" d="M54.8702 145.552L50.2729 139.641L52.9464 137.562L55.1229 140.36L62.476 132.598L64.935 134.928L54.8702 145.552Z" fill="white"/>
<g id="Group 24">
<path id="Ellipse 97" d="M125.713 119.685C130.384 119.685 134.171 115.898 134.171 111.227C134.171 106.556 130.384 102.769 125.713 102.769C121.041 102.769 117.255 106.556 117.255 111.227C117.255 115.898 121.041 119.685 125.713 119.685Z" fill="#2F2E41"/>
<path id="Path 624" d="M129.14 158.709L129.792 161.783L141.958 160.732L140.997 156.196L129.14 158.709Z" fill="#FFB8B8"/>
<path id="Path 625" d="M128.193 168.315L126.146 158.654L129.878 157.863L131.135 163.792C131.238 164.282 131.245 164.788 131.153 165.28C131.062 165.773 130.874 166.243 130.601 166.663C130.327 167.083 129.974 167.445 129.561 167.729C129.148 168.012 128.683 168.212 128.193 168.315Z" fill="#2F2E41"/>
<path id="Path 626" d="M121.518 158.545L120.149 161.373L108.589 157.437L110.611 153.263L121.518 158.545Z" fill="#FFB8B8"/>
<path id="Path 627" d="M118.364 163.004L121.005 157.55L124.439 159.213L120.135 168.101C119.224 167.66 118.526 166.876 118.194 165.92C117.862 164.964 117.923 163.915 118.364 163.004Z" fill="#2F2E41"/>
<path id="Path 628" d="M98.7428 152.959C99.1385 153.033 99.5456 153.019 99.9353 152.918C100.325 152.818 100.688 152.633 100.999 152.377C101.309 152.121 101.56 151.8 101.733 151.436C101.906 151.073 101.997 150.676 102 150.273L121.062 132.698L116.328 129.032L99.0698 147.471C98.393 147.51 97.7543 147.797 97.2746 148.276C96.7949 148.755 96.5076 149.393 96.4673 150.07C96.427 150.747 96.6365 151.415 97.0559 151.947C97.4754 152.48 98.0757 152.84 98.743 152.959L98.7428 152.959Z" fill="#FFB8B8"/>
<path id="Ellipse 98" d="M124.651 120.067C128.128 120.067 130.946 117.249 130.946 113.772C130.946 110.295 128.128 107.477 124.651 107.477C121.174 107.477 118.356 110.295 118.356 113.772C118.356 117.249 121.174 120.067 124.651 120.067Z" fill="#FFB8B8"/>
<path id="Path 629" d="M130.301 150.775C125.885 150.775 120.567 149.846 117.286 146.04L117.212 145.954L117.289 145.87C117.314 145.843 119.727 143.084 117.317 138.165L114.003 139.185L110.705 134.83L112.532 129.348L120.01 123.325C121.082 122.467 122.386 121.95 123.755 121.841C126.232 121.601 128.644 120.914 130.876 119.813C131.897 119.316 133.022 119.07 134.157 119.095L134.304 119.099C134.649 119.109 134.988 119.189 135.302 119.333C135.615 119.478 135.896 119.685 136.127 119.942C136.358 120.199 136.535 120.499 136.646 120.826C136.757 121.153 136.801 121.499 136.775 121.844C136.267 128.413 135.372 144.281 138.003 149.745L138.071 149.886L137.919 149.925C135.419 150.487 132.864 150.772 130.301 150.775L130.301 150.775Z" fill="#00BFA6"/>
<path id="Path 630" d="M118.152 145.956C118.152 145.956 101.492 144.418 99.698 149.288C97.9039 154.158 99.9543 156.465 103.03 157.49C106.106 158.515 113.538 159.797 113.538 159.797L116.87 155.696L125.585 156.208C125.585 156.208 135.295 161.84 137.979 167.863C138.555 169.167 139.474 170.29 140.637 171.113C141.801 171.936 143.165 172.428 144.586 172.537C146.739 172.687 148.652 171.874 148.652 168.51C148.652 160.821 137.887 149.8 137.887 149.8L118.152 145.956Z" fill="#2F2E41"/>
<path id="Path 631" d="M105.465 153.517C105.465 153.517 109.822 152.236 116.742 155.568L105.465 153.517Z" fill="#2F2E41"/>
<path id="Path 632" d="M118.371 109.757C120.83 111.258 123.602 112.171 126.471 112.426L125.617 111.403C126.238 111.633 126.893 111.763 127.555 111.788C127.886 111.797 128.216 111.729 128.516 111.588C128.816 111.448 129.08 111.239 129.285 110.978C129.452 110.707 129.552 110.4 129.575 110.082C129.598 109.765 129.544 109.446 129.417 109.154C129.157 108.572 128.752 108.065 128.241 107.683C127.335 106.967 126.265 106.485 125.128 106.282C123.991 106.079 122.821 106.16 121.723 106.518C120.969 106.743 120.294 107.176 119.775 107.767C119.52 108.065 119.343 108.421 119.259 108.804C119.176 109.187 119.189 109.585 119.297 109.961" fill="#2F2E41"/>
<path id="Path 633" d="M125.667 104.726C126.786 102.129 128.46 99.8081 130.572 97.9277C131.929 96.7231 133.513 95.6869 135.3 95.3742C137.087 95.0615 139.102 95.5972 140.198 97.043C141.095 98.2253 141.262 99.8093 141.164 101.29C141.065 102.77 140.734 104.237 140.766 105.72C140.798 107.233 141.208 108.715 141.958 110.03C142.708 111.345 143.775 112.452 145.061 113.25C146.348 114.048 147.813 114.512 149.324 114.601C150.836 114.689 152.345 114.398 153.716 113.755C152.172 114.608 150.97 115.959 149.538 116.986C148.106 118.014 146.216 118.719 144.588 118.04C142.867 117.322 142.077 115.369 141.46 113.608L138.709 105.755C138.242 104.42 137.751 103.046 136.797 102.002C135.843 100.958 134.294 100.321 132.981 100.846C131.985 101.244 131.337 102.194 130.769 103.101C130.201 104.009 129.601 104.978 128.641 105.454C127.682 105.931 126.258 105.637 125.944 104.612" fill="#2F2E41"/>
<path id="Path 636" d="M127.827 150.798C127.719 150.798 127.61 150.792 127.502 150.78C126.786 150.699 126.128 150.347 125.663 149.796C125.198 149.245 124.962 148.537 125.003 147.817C125.044 147.098 125.359 146.421 125.883 145.927C126.408 145.432 127.102 145.157 127.823 145.159C127.949 145.159 128.074 145.169 128.199 145.187L136.805 136.025L135.906 133.03L140.417 131.007L141.682 134.098C142.106 135.145 142.181 136.301 141.896 137.394C141.611 138.488 140.981 139.46 140.1 140.166L130.627 147.702C130.637 147.794 130.642 147.886 130.642 147.978C130.642 148.375 130.558 148.767 130.396 149.129C130.235 149.491 129.998 149.815 129.703 150.08C129.189 150.544 128.52 150.8 127.827 150.798Z" fill="#FFB8B8"/>
<path id="Path 637" d="M134.555 120.326C134.854 120.193 135.176 120.122 135.502 120.117C135.829 120.112 136.153 120.173 136.455 120.297C136.757 120.42 137.032 120.604 137.261 120.836C137.491 121.068 137.671 121.344 137.792 121.647L142.244 132.885L135.324 137.498L134.555 120.326Z" fill="#00BFA6"/>
</g>
</g>
</g>
<defs>
<clipPath id="clip0_3_16">
<rect width="174.542" height="176" fill="white"/>
</clipPath>
</defs>
</svg>
