<svg width="213" height="169" viewBox="0 0 213 169" fill="none" xmlns="http://www.w3.org/2000/svg">
<g clip-path="url(#clip0_3_175)">
<path d="M171.017 40.0411H170.091V14.6789C170.091 12.7513 169.712 10.8425 168.974 9.06155C168.236 7.28062 167.155 5.66243 165.792 4.29936C164.429 2.9363 162.811 1.85505 161.03 1.11737C159.249 0.379683 157.34 9.12151e-07 155.412 0H101.679C97.7862 -8.59645e-06 94.0526 1.54651 91.2997 4.29933C88.5469 7.05215 87.0004 10.7858 87.0004 14.6789V153.818C87.0004 157.711 88.5469 161.444 91.2997 164.197C94.0525 166.95 97.7862 168.496 101.679 168.496H155.412C159.305 168.496 163.039 166.95 165.792 164.197C168.545 161.444 170.091 157.711 170.091 153.818V58.0942H171.017L171.017 40.0411Z" fill="#E6E6E6"/>
<path d="M166.967 14.7813V153.715C166.967 156.623 165.812 159.411 163.756 161.467C161.7 163.523 158.912 164.678 156.004 164.678H102.014C99.1061 164.678 96.3178 163.523 94.2619 161.467C92.206 159.411 91.051 156.623 91.051 153.715V14.7813C91.051 11.8739 92.206 9.08557 94.2619 7.02971C96.3178 4.97384 99.1061 3.81884 102.014 3.81879H108.563C108.241 4.60966 108.119 5.4675 108.206 6.31685C108.294 7.16621 108.589 7.98105 109.065 8.68969C109.541 9.39834 110.185 9.97908 110.938 10.3808C111.691 10.7826 112.532 10.993 113.386 10.9936H144.169C145.023 10.993 145.863 10.7826 146.617 10.3808C147.37 9.97907 148.013 9.39833 148.49 8.68968C148.966 7.98104 149.261 7.1662 149.348 6.31685C149.436 5.4675 149.313 4.60966 148.992 3.81879H156.004C158.912 3.81884 161.7 4.97384 163.756 7.0297C165.812 9.08557 166.967 11.8739 166.967 14.7813Z" fill="white"/>
<path d="M104.892 16.7046C102.927 16.7046 101.042 17.4851 99.6528 18.8745C98.2634 20.2639 97.4828 22.1483 97.4828 24.1132C97.4828 26.0781 98.2633 27.9626 99.6527 29.352C101.042 30.7414 102.927 31.5219 104.891 31.522H104.892C106.856 31.522 108.741 30.7414 110.13 29.352C111.52 27.9626 112.3 26.0782 112.3 24.1133C112.3 22.1483 111.52 20.2639 110.13 18.8745C108.741 17.4851 106.856 16.7046 104.892 16.7046Z" fill="#E6E6E6"/>
<path d="M158.683 30.3644H119.787C119.296 30.3644 118.825 30.1693 118.478 29.8219C118.13 29.4746 117.935 29.0035 117.935 28.5122C117.935 28.021 118.13 27.5499 118.478 27.2025C118.825 26.8552 119.296 26.66 119.787 26.66H158.683C159.174 26.66 159.645 26.8552 159.993 27.2025C160.34 27.5499 160.535 28.021 160.535 28.5122C160.535 29.0035 160.34 29.4746 159.993 29.8219C159.645 30.1693 159.174 30.3644 158.683 30.3644Z" fill="#E6E6E6"/>
<path d="M132.058 22.4926H119.787C119.296 22.4926 118.825 22.2975 118.478 21.9502C118.13 21.6028 117.935 21.1317 117.935 20.6405C117.935 20.1492 118.13 19.6781 118.478 19.3308C118.825 18.9834 119.296 18.7883 119.787 18.7883H132.058C132.549 18.7883 133.02 18.9834 133.368 19.3308C133.715 19.6781 133.91 20.1492 133.91 20.6405C133.91 21.1317 133.715 21.6028 133.368 21.9502C133.02 22.2975 132.549 22.4926 132.058 22.4926Z" fill="#E6E6E6"/>
<path d="M104.892 47.7285C102.927 47.7285 101.042 48.509 99.6528 49.8984C98.2634 51.2878 97.4828 53.1722 97.4828 55.1371C97.4828 57.102 98.2633 58.9865 99.6527 60.3759C101.042 61.7653 102.927 62.5459 104.891 62.5459H104.892C106.856 62.5459 108.741 61.7653 110.13 60.3759C111.52 58.9865 112.3 57.1021 112.3 55.1372C112.3 53.1723 111.52 51.2878 110.13 49.8984C108.741 48.509 106.856 47.7285 104.892 47.7285Z" fill="#E6E6E6"/>
<path d="M158.683 61.3883H119.787C119.296 61.3883 118.825 61.1932 118.478 60.8458C118.13 60.4985 117.935 60.0274 117.935 59.5361C117.935 59.0449 118.13 58.5738 118.478 58.2264C118.825 57.8791 119.296 57.684 119.787 57.684H158.683C159.174 57.684 159.645 57.8791 159.993 58.2264C160.34 58.5738 160.535 59.0449 160.535 59.5361C160.535 60.0274 160.34 60.4985 159.993 60.8458C159.645 61.1932 159.174 61.3883 158.683 61.3883Z" fill="#E6E6E6"/>
<path d="M132.058 53.5166H119.787C119.296 53.5166 118.825 53.3214 118.478 52.9741C118.13 52.6267 117.935 52.1556 117.935 51.6644C117.935 51.1731 118.13 50.702 118.478 50.3547C118.825 50.0073 119.296 49.8122 119.787 49.8122H132.058C132.549 49.8122 133.02 50.0073 133.368 50.3547C133.715 50.702 133.91 51.1731 133.91 51.6644C133.91 52.1556 133.715 52.6267 133.368 52.9741C133.02 53.3214 132.549 53.5166 132.058 53.5166Z" fill="#E6E6E6"/>
<path d="M104.892 109.776C102.927 109.776 101.042 110.557 99.6528 111.946C98.2634 113.336 97.4828 115.22 97.4828 117.185C97.4828 119.15 98.2633 121.034 99.6527 122.424C101.042 123.813 102.927 124.594 104.891 124.594H104.892C106.856 124.594 108.741 123.813 110.13 122.424C111.52 121.034 112.3 119.15 112.3 117.185C112.3 115.22 111.52 113.336 110.13 111.946C108.741 110.557 106.856 109.776 104.892 109.776Z" fill="#E6E6E6"/>
<path d="M158.683 123.436H119.787C119.296 123.436 118.825 123.241 118.478 122.894C118.13 122.546 117.935 122.075 117.935 121.584C117.935 121.093 118.13 120.622 118.478 120.274C118.825 119.927 119.296 119.732 119.787 119.732H158.683C159.174 119.732 159.645 119.927 159.993 120.274C160.34 120.622 160.535 121.093 160.535 121.584C160.535 122.075 160.34 122.546 159.993 122.894C159.645 123.241 159.174 123.436 158.683 123.436Z" fill="#E6E6E6"/>
<path d="M132.058 115.564H119.787C119.296 115.564 118.825 115.369 118.478 115.022C118.13 114.675 117.935 114.203 117.935 113.712C117.935 113.221 118.13 112.75 118.478 112.403C118.825 112.055 119.296 111.86 119.787 111.86H132.058C132.549 111.86 133.02 112.055 133.368 112.403C133.715 112.75 133.91 113.221 133.91 113.712C133.91 114.203 133.715 114.675 133.368 115.022C133.02 115.369 132.549 115.564 132.058 115.564Z" fill="#E6E6E6"/>
<path d="M104.892 140.8C102.927 140.8 101.042 141.581 99.6528 142.97C98.2634 144.36 97.4828 146.244 97.4828 148.209C97.4828 150.174 98.2633 152.058 99.6527 153.448C101.042 154.837 102.927 155.618 104.891 155.618H104.892C106.856 155.618 108.741 154.837 110.13 153.448C111.52 152.058 112.3 150.174 112.3 148.209C112.3 146.244 111.52 144.36 110.13 142.97C108.741 141.581 106.856 140.8 104.892 140.8Z" fill="#E6E6E6"/>
<path d="M158.683 154.46H119.787C119.296 154.46 118.825 154.265 118.478 153.918C118.13 153.57 117.935 153.099 117.935 152.608C117.935 152.117 118.13 151.646 118.478 151.298C118.825 150.951 119.296 150.756 119.787 150.756H158.683C159.174 150.756 159.645 150.951 159.993 151.298C160.34 151.646 160.535 152.117 160.535 152.608C160.535 153.099 160.34 153.57 159.993 153.918C159.645 154.265 159.174 154.46 158.683 154.46Z" fill="#E6E6E6"/>
<path d="M132.058 146.588H119.787C119.296 146.588 118.825 146.393 118.478 146.046C118.13 145.698 117.935 145.227 117.935 144.736C117.935 144.245 118.13 143.774 118.478 143.426C118.825 143.079 119.296 142.884 119.787 142.884H132.058C132.549 142.884 133.02 143.079 133.368 143.426C133.715 143.774 133.91 144.245 133.91 144.736C133.91 145.227 133.715 145.698 133.368 146.046C133.02 146.393 132.549 146.588 132.058 146.588Z" fill="#E6E6E6"/>
<path d="M173.693 103.988H84.3253C83.3125 103.987 82.3415 103.584 81.6253 102.868C80.9092 102.152 80.5063 101.181 80.5052 100.168V71.4595C80.5063 70.4467 80.9092 69.4757 81.6253 68.7595C82.3415 68.0434 83.3125 67.6405 84.3253 67.6394H173.693C174.705 67.6405 175.676 68.0434 176.393 68.7595C177.109 69.4757 177.512 70.4467 177.513 71.4595V100.168C177.512 101.181 177.109 102.152 176.393 102.868C175.676 103.584 174.705 103.987 173.693 103.988Z" fill="white"/>
<path d="M95.3002 96.4004C93.2064 96.4004 91.1596 95.7795 89.4186 94.6163C87.6777 93.453 86.3208 91.7996 85.5195 89.8652C84.7182 87.9307 84.5086 85.8021 84.917 83.7485C85.3255 81.6949 86.3338 79.8086 87.8144 78.328C89.2949 76.8474 91.1813 75.8392 93.2349 75.4307C95.2885 75.0222 97.4171 75.2319 99.3515 76.0331C101.286 76.8344 102.939 78.1913 104.103 79.9323C105.266 81.6732 105.887 83.72 105.887 85.8139C105.884 88.6206 104.767 91.3115 102.783 93.2962C100.798 95.2809 98.107 96.3973 95.3002 96.4004ZM95.3002 75.6903C93.298 75.6903 91.3407 76.2841 89.6759 77.3964C88.0111 78.5088 86.7135 80.0899 85.9473 81.9397C85.1811 83.7896 84.9806 85.8251 85.3712 87.7889C85.7618 89.7526 86.726 91.5565 88.1418 92.9723C89.5576 94.3881 91.3614 95.3523 93.3252 95.7429C95.289 96.1335 97.3245 95.933 99.1743 95.1668C101.024 94.4006 102.605 93.103 103.718 91.4382C104.83 89.7734 105.424 87.8161 105.424 85.8139C105.421 83.1299 104.353 80.5567 102.455 78.6588C100.557 76.7609 97.9842 75.6934 95.3002 75.6903Z" fill="#3F3D56"/>
<path d="M170.484 94.551H116.12C115.78 94.5513 115.443 94.4846 115.128 94.3547C114.814 94.2247 114.528 94.0341 114.288 93.7936C114.047 93.5532 113.856 93.2677 113.726 92.9535C113.596 92.6392 113.529 92.3024 113.529 91.9622C113.529 91.6221 113.596 91.2852 113.726 90.971C113.856 90.6568 114.047 90.3713 114.288 90.1308C114.528 89.8904 114.814 89.6998 115.128 89.5698C115.443 89.4399 115.78 89.3731 116.12 89.3735H170.484C170.824 89.3731 171.161 89.4399 171.476 89.5698C171.79 89.6998 172.076 89.8904 172.316 90.1308C172.557 90.3713 172.748 90.6568 172.878 90.971C173.008 91.2852 173.075 91.6221 173.075 91.9622C173.075 92.3024 173.008 92.6392 172.878 92.9535C172.748 93.2677 172.557 93.5532 172.316 93.7936C172.076 94.0341 171.79 94.2247 171.476 94.3547C171.161 94.4846 170.824 94.5513 170.484 94.551Z" fill="#00BFA6"/>
<path d="M133.271 83.5487H116.12C115.78 83.5491 115.443 83.4823 115.128 83.3524C114.814 83.2224 114.528 83.0318 114.288 82.7914C114.047 82.5509 113.856 82.2654 113.726 81.9512C113.596 81.637 113.529 81.3001 113.529 80.96C113.529 80.6198 113.596 80.283 113.726 79.9687C113.856 79.6545 114.047 79.369 114.288 79.1286C114.528 78.8881 114.814 78.6975 115.128 78.5675C115.443 78.4376 115.78 78.3709 116.12 78.3712H133.271C133.611 78.3709 133.948 78.4376 134.262 78.5675C134.576 78.6975 134.862 78.8881 135.103 79.1286C135.343 79.369 135.534 79.6545 135.664 79.9687C135.795 80.283 135.862 80.6198 135.862 80.96C135.862 81.3001 135.795 81.637 135.664 81.9512C135.534 82.2654 135.343 82.5509 135.103 82.7914C134.862 83.0318 134.576 83.2224 134.262 83.3524C133.948 83.4823 133.611 83.5491 133.271 83.5487Z" fill="#00BFA6"/>
<path d="M173.693 103.988H84.3253C83.3125 103.987 82.3415 103.584 81.6253 102.868C80.9092 102.152 80.5063 101.181 80.5052 100.168V71.4595C80.5063 70.4467 80.9092 69.4757 81.6253 68.7595C82.3415 68.0434 83.3125 67.6405 84.3253 67.6394H173.693C174.705 67.6405 175.676 68.0434 176.393 68.7595C177.109 69.4757 177.512 70.4467 177.513 71.4595V100.168C177.512 101.181 177.109 102.152 176.393 102.868C175.676 103.584 174.705 103.987 173.693 103.988ZM84.3253 67.8709C83.3739 67.872 82.4617 68.2504 81.789 68.9232C81.1162 69.5959 80.7378 70.5081 80.7367 71.4595V100.168C80.7378 101.12 81.1162 102.032 81.789 102.705C82.4617 103.377 83.3739 103.756 84.3253 103.757H173.693C174.644 103.756 175.556 103.377 176.229 102.705C176.902 102.032 177.28 101.12 177.281 100.168V71.4595C177.28 70.5081 176.902 69.5959 176.229 68.9232C175.556 68.2504 174.644 67.872 173.693 67.8709H84.3253Z" fill="#3F3D56"/>
<path d="M95.1131 90.9658C97.4984 90.9658 99.432 89.0322 99.432 86.6469C99.432 84.2617 97.4984 82.3281 95.1131 82.3281C92.7279 82.3281 90.7943 84.2617 90.7943 86.6469C90.7943 89.0322 92.7279 90.9658 95.1131 90.9658Z" fill="#2F2E41"/>
<path d="M91.742 84.3183C92.4399 83.6204 92.5814 82.6303 92.0579 82.1069C91.5345 81.5834 90.5444 81.7249 89.8465 82.4228C89.1486 83.1207 89.0072 84.1108 89.5306 84.6342C90.054 85.1577 91.0441 85.0162 91.742 84.3183Z" fill="#2F2E41"/>
<path d="M99.6145 82.9468C99.9053 82.266 99.4052 81.3999 98.4976 81.0122C97.5899 80.6244 96.6184 80.862 96.3276 81.5427C96.0368 82.2235 96.5369 83.0896 97.4445 83.4773C98.3522 83.8651 99.3237 83.6275 99.6145 82.9468Z" fill="#2F2E41"/>
<path d="M95.2501 91.3433C97.2744 91.3433 98.9155 89.7023 98.9155 87.6779C98.9155 85.6536 97.2744 84.0126 95.2501 84.0126C93.2258 84.0126 91.5847 85.6536 91.5847 87.6779C91.5847 89.7023 93.2258 91.3433 95.2501 91.3433Z" fill="#FFB8B8"/>
<path d="M91.3987 85.3724C92.2363 85.9497 93.2304 86.2569 94.2477 86.2529C93.8848 86.5045 93.4717 86.6744 93.0369 86.751C94.3894 87.0412 95.7872 87.049 97.1429 86.7741C97.4443 86.7258 97.735 86.6259 98.0025 86.4789C98.1357 86.4045 98.2519 86.3028 98.3433 86.1806C98.4347 86.0583 98.4993 85.9182 98.533 85.7693C98.6231 85.2547 98.2221 84.7871 97.8054 84.472C97.1673 83.9969 96.4316 83.6696 95.6515 83.5137C94.8714 83.3578 94.0664 83.3773 93.2948 83.5707C92.7807 83.6741 92.3128 83.9385 91.9589 84.3256C91.6316 84.7302 91.5347 85.3541 91.8465 85.7707L91.3987 85.3724Z" fill="#2F2E41"/>
<path d="M41.1495 118.346C41.0423 117.998 41.0126 117.632 41.0624 117.272C41.1123 116.911 41.2405 116.567 41.4381 116.261C41.6356 115.956 41.8977 115.698 42.2059 115.505C42.514 115.312 42.8607 115.189 43.2216 115.144L55.1063 101.257L57.8782 104.167L46.0404 117.483C46.075 118.094 45.8842 118.697 45.5041 119.177C45.1241 119.656 44.5812 119.98 43.9783 120.087C43.3754 120.193 42.7545 120.075 42.2331 119.754C41.7118 119.433 41.3262 118.932 41.1495 118.346Z" fill="#A0616A"/>
<path d="M51.2399 103.425C51.2278 103.276 51.248 103.126 51.2992 102.985C51.3503 102.844 51.4312 102.716 51.5364 102.61L55.208 98.8868C55.6598 98.2678 56.3385 97.8534 57.0955 97.7343C57.8524 97.6152 58.6257 97.8012 59.2456 98.2515C59.8656 98.7018 60.2816 99.3796 60.4024 100.136C60.5233 100.893 60.339 101.667 59.8901 102.288L57.4488 106.931C57.3791 107.063 57.2817 107.179 57.1632 107.271C57.0446 107.362 56.9078 107.427 56.7619 107.461C56.6161 107.495 56.4647 107.497 56.318 107.467C56.1713 107.437 56.0328 107.376 55.9119 107.287L51.6636 104.182C51.5427 104.094 51.4422 103.981 51.3691 103.85C51.296 103.719 51.2519 103.574 51.2399 103.425Z" fill="#00BFA6"/>
<path d="M59.8613 94.9042C63.0018 94.9042 65.5477 92.3583 65.5477 89.2177C65.5477 86.0772 63.0018 83.5313 59.8613 83.5313C56.7208 83.5313 54.1749 86.0772 54.1749 89.2177C54.1749 92.3583 56.7208 94.9042 59.8613 94.9042Z" fill="#A0616A"/>
<path d="M56.7694 114.664C56.6563 114.58 56.5617 114.473 56.4914 114.351C56.4211 114.229 56.3765 114.094 56.3605 113.954C55.9674 110.668 55.3953 107.406 54.6467 104.182C54.3153 102.733 54.5211 101.213 55.2259 99.9049C55.9308 98.5966 57.0866 97.5886 58.4787 97.0683C59.8708 96.5481 61.4045 96.5509 62.7946 97.0764C64.1848 97.6018 65.3369 98.6141 66.0368 99.9251C68.2731 104.122 68.4439 109.884 68.4136 112.167C68.4101 112.411 68.3213 112.645 68.1625 112.83C68.0037 113.015 67.785 113.138 67.5447 113.178L57.5673 114.858C57.5091 114.867 57.4502 114.872 57.3912 114.872C57.1668 114.872 56.9485 114.799 56.7694 114.664Z" fill="#2F2E41"/>
<path d="M78.3101 96.1488C78.2817 96.2737 78.2631 96.4007 78.2547 96.5285L68.3091 102.266L65.8917 100.874L63.3146 104.248L67.3547 107.128C67.6811 107.36 68.0741 107.481 68.4748 107.471C68.8755 107.461 69.2622 107.322 69.5769 107.074L79.8325 98.9829C80.2953 99.1543 80.7994 99.1806 81.2775 99.0585C81.7557 98.9364 82.1854 98.6716 82.5094 98.2993C82.8334 97.927 83.0364 97.4649 83.0914 96.9745C83.1463 96.484 83.0507 95.9885 82.8171 95.5537C82.5836 95.1189 82.2232 94.7656 81.7839 94.5406C81.3447 94.3157 80.8473 94.2298 80.358 94.2944C79.8688 94.359 79.4107 94.571 79.0449 94.9023C78.6791 95.2335 78.4228 95.6683 78.3101 96.1488Z" fill="#A0616A"/>
<path d="M67.9766 102.538L64.7622 106.704C64.6708 106.822 64.5548 106.92 64.4223 106.99C64.2898 107.059 64.1438 107.1 63.9943 107.108C63.8449 107.116 63.6954 107.092 63.556 107.037C63.4167 106.982 63.2908 106.898 63.187 106.79L59.5481 103.011C58.9443 102.54 58.5522 101.848 58.4575 101.088C58.3629 100.328 58.5735 99.5617 59.0432 98.9566C59.5129 98.3516 60.2033 97.9575 60.9631 97.8606C61.7229 97.7638 62.4901 97.9723 63.0965 98.4402L67.6605 100.992C67.7912 101.065 67.9045 101.166 67.9929 101.287C68.0812 101.407 68.1425 101.546 68.1725 101.693C68.2025 101.839 68.2005 101.991 68.1667 102.137C68.1329 102.282 68.0681 102.419 67.9766 102.538H67.9766Z" fill="#00BFA6"/>
<path d="M72.9877 165.872L75.8262 165.872L76.4943 154.959L72.9872 154.924L72.9877 165.872Z" fill="#A0616A"/>
<path d="M72.2637 164.945L77.8535 164.945H77.8537C78.3215 164.945 78.7848 165.037 79.217 165.216C79.6492 165.395 80.0419 165.657 80.3727 165.988C80.7034 166.319 80.9658 166.712 81.1449 167.144C81.3239 167.576 81.416 168.039 81.416 168.507V168.623L72.2638 168.623L72.2637 164.945Z" fill="#2F2E41"/>
<path d="M45.8996 165.872L48.7381 165.872L50.0883 154.923L45.8992 154.924L45.8996 165.872Z" fill="#A0616A"/>
<path d="M45.1757 164.945L50.7655 164.945H50.7657C51.2335 164.945 51.6967 165.037 52.1289 165.216C52.5611 165.395 52.9539 165.657 53.2846 165.988C53.6154 166.319 53.8778 166.712 54.0569 167.144C54.2359 167.576 54.328 168.039 54.328 168.507V168.623L45.1758 168.623L45.1757 164.945Z" fill="#2F2E41"/>
<path d="M48.9932 160.186L45.4706 159.726C45.3234 159.707 45.1821 159.657 45.056 159.578C44.9298 159.5 44.8219 159.396 44.7394 159.272C44.6569 159.149 44.6018 159.009 44.5776 158.863C44.5535 158.717 44.5609 158.567 44.5994 158.423L49.7377 133.173C50.2485 130.722 50.602 128.24 50.7959 125.744C50.9459 123.713 51.5405 120.84 53.5214 118.693C54.327 117.811 55.0788 116.882 55.7728 115.911L57.3282 113.757L67.6893 112.109L67.6964 112.237C68.144 120.47 70.2825 128.523 73.9787 135.893C75.6413 139.208 76.5957 142.833 76.781 146.537L77.3681 157.986C77.3754 158.131 77.3524 158.276 77.3005 158.412C77.2485 158.547 77.1688 158.671 77.0665 158.774C76.9645 158.877 76.8417 158.958 76.7062 159.011C76.5707 159.064 76.4255 159.087 76.2803 159.08L72.9129 158.927C72.6846 158.916 72.4661 158.831 72.291 158.684C72.116 158.537 71.9939 158.337 71.9436 158.114L69.132 145.57C69.1067 145.458 69.0582 145.353 68.9896 145.261L60.1662 133.497C60.1032 133.413 60.0187 133.347 59.9215 133.308C59.8244 133.268 59.7183 133.256 59.6147 133.272C59.511 133.288 59.4136 133.332 59.333 133.399C59.2523 133.466 59.1914 133.554 59.1568 133.653L50.1113 159.497C50.0392 159.7 49.9059 159.877 49.7296 160.002C49.5533 160.127 49.3427 160.194 49.1267 160.194C49.082 160.194 49.0375 160.192 48.9932 160.186Z" fill="#2F2E41"/>
<path d="M53.5738 85.2709C54.0255 83.9016 54.3589 82.4962 54.5704 81.0699C54.6369 80.2395 54.4242 79.3461 53.8194 78.7732C52.6878 77.701 50.765 78.2116 49.5815 79.2264C47.8711 80.6929 47.018 82.9466 46.6956 85.1765C46.3733 87.4063 46.5151 89.6739 46.4375 91.9256C46.3599 94.1773 46.0378 96.4926 44.8899 98.4312C43.7419 100.37 41.6117 101.858 39.3647 101.693C38.4577 101.644 37.5965 101.279 36.9305 100.661C36.6036 100.35 36.356 99.9655 36.2085 99.5391C36.061 99.1126 36.0179 98.6571 36.0828 98.2105C34.9344 100.267 35.5165 103.054 37.2296 104.671C38.9426 106.287 41.5776 106.744 43.8296 106.054C46.0816 105.364 47.9351 103.633 49.0422 101.554C50.1493 99.4752 50.555 97.0736 50.4963 94.7189C50.4511 92.9107 50.1437 91.0876 50.4493 89.3049C50.7549 87.5221 51.8706 85.7119 53.63 85.2921L53.5738 85.2709Z" fill="#2F2E41"/>
<path d="M61.4747 87.6148C61.7747 88.6169 62.9221 89.2348 63.9543 89.0653C64.9864 88.8958 65.8352 88.0458 66.1488 87.048C66.4324 86.0288 66.3163 84.9398 65.8243 84.0033C65.5531 83.442 65.174 82.9396 64.7085 82.525C64.243 82.1104 63.7003 81.7916 63.1114 81.587C62.5193 81.3907 61.8886 81.3397 61.2726 81.4381C60.6566 81.5365 60.0733 81.7816 59.5717 82.1526C59.5183 81.9274 59.4059 81.7206 59.246 81.5534C59.0861 81.3862 58.8845 81.2646 58.662 81.2012C58.214 81.0804 57.7411 81.0874 57.2968 81.2213C56.0166 81.5862 54.9073 82.3932 54.1661 83.4989C53.4344 84.6012 52.9503 85.849 52.7472 87.1565C52.3979 89.1171 52.5267 91.2596 53.6279 92.919C54.7291 94.5784 56.9819 95.5582 58.8096 94.7671C58.9235 94.1845 58.6536 93.5978 58.3412 93.093C58.0289 92.5882 57.6587 92.0964 57.5387 91.515C57.4188 90.9336 57.6488 90.2224 58.2111 90.0323C58.6909 89.8701 59.2024 90.1329 59.7079 90.1646C59.9949 90.1826 60.2817 90.1249 60.5393 89.9971C60.797 89.8693 61.0165 89.676 61.1759 89.4366C61.3353 89.1972 61.4289 88.9201 61.4474 88.6331C61.4659 88.3461 61.4086 88.0592 61.2812 87.8014L61.4747 87.6148Z" fill="#2F2E41"/>
<path d="M212.768 168.73H0.231522C0.170118 168.73 0.11123 168.706 0.067811 168.662C0.0243922 168.619 0 168.56 0 168.498C0 168.437 0.0243922 168.378 0.067811 168.335C0.11123 168.291 0.170118 168.267 0.231522 168.267H212.768C212.83 168.267 212.889 168.291 212.932 168.335C212.976 168.378 213 168.437 213 168.498C213 168.56 212.976 168.619 212.932 168.662C212.889 168.706 212.83 168.73 212.768 168.73Z" fill="#CCCCCC"/>
</g>
<defs>
<clipPath id="clip0_3_175">
<rect width="213" height="168.73" fill="white"/>
</clipPath>
</defs>
</svg>
